<svg xmlns="http://www.w3.org/2000/svg" viewBox="0 0 487.75 104.94"><defs><style>.cls-1,.cls-2{fill:#3b80ee;}.cls-1{fill-rule:evenodd;}.cls-3{fill:#fff;}</style></defs><title>New TA White logo</title><g id="Layer_2" data-name="Layer 2"><g id="Layer_1-2" data-name="Layer 1"><polygon class="cls-1" points="188.83 0 235.47 104.94 212.15 104.94 165.51 0 188.83 0"/><polygon class="cls-2" points="165.51 0 212.15 104.94 235.47 104.94 188.83 0 165.51 0"/><polygon class="cls-2" points="165.51 0 212.15 104.94 235.47 104.94 188.83 0 165.51 0"/><path class="cls-3" d="M0,0V23.32H35v81.62H58.3V23.32h35V0ZM128.27,0,81.62,104.94h23.32l35-75.79,35,75.79h23.32L151.59,0Z"/><path class="cls-3" d="M264.55,102.64V93.88h15.32a11.51,11.51,0,0,0,4.26-.84,10.3,10.3,0,0,0,3.47-2.35A10.73,10.73,0,0,0,290,87.21a10.44,10.44,0,0,0,.85-4.27,11.52,11.52,0,0,0-.85-4.26,10.32,10.32,0,0,0-2.36-3.48,10.82,10.82,0,0,0-3.47-2.35,10.39,10.39,0,0,0-4.26-.85H264.55V63.25h15.32a19.26,19.26,0,0,1,7.66,1.56,19.47,19.47,0,0,1,3.33,1.8A21.22,21.22,0,0,1,293.79,69,19.58,19.58,0,0,1,298,75.29a19.56,19.56,0,0,1,0,15.31,18.84,18.84,0,0,1-1.8,3.34,20.52,20.52,0,0,1-2.41,2.93,19.19,19.19,0,0,1-2.93,2.4,20.25,20.25,0,0,1-3.33,1.81,19.61,19.61,0,0,1-7.66,1.56Z"/><polygon class="cls-3" points="393.66 102.64 393.66 72 380.52 72 380.52 63.25 415.54 63.25 415.54 72 402.41 72 402.41 102.64 393.66 102.64"/><polygon class="cls-3" points="411.16 102.64 428.67 63.25 437.42 63.25 454.93 102.64 446.17 102.64 433.04 74.19 419.92 102.64 411.16 102.64"/><rect class="cls-3" x="306.12" y="63.25" width="8.75" height="39.39"/><rect class="cls-3" x="365.21" y="63.25" width="8.75" height="39.39"/><polygon class="cls-3" points="459.3 102.64 459.3 63.25 468.06 63.25 468.06 93.89 487.75 93.89 487.75 102.64 459.3 102.64"/><path class="cls-3" d="M334.13,102.09a22.15,22.15,0,0,1-3.52-1.91,19.25,19.25,0,0,1-3.07-2.55A20.74,20.74,0,0,1,325,94.57,21.94,21.94,0,0,1,323.08,91a20.77,20.77,0,0,1,0-16.19A21.53,21.53,0,0,1,325,71.32a19.56,19.56,0,0,1,2.54-3.06,20.28,20.28,0,0,1,3.07-2.55,22.15,22.15,0,0,1,3.52-1.91,20.79,20.79,0,0,1,16.2,0,22.15,22.15,0,0,1,3.52,1.91,18,18,0,0,1,2.52,2l-6.15,6.15a12.09,12.09,0,0,0-12.69-2,11.79,11.79,0,0,0-3.86,2.6,12.08,12.08,0,0,0-2.6,13.26,11.79,11.79,0,0,0,2.6,3.86,12,12,0,0,0,13.26,2.6,11.43,11.43,0,0,0,3-1.78V83h8.75V95.72a16.68,16.68,0,0,1-1.72,1.94,20.43,20.43,0,0,1-6.59,4.46,20.54,20.54,0,0,1-8.1,1.64,21.11,21.11,0,0,1-8.1-1.67"/></g></g></svg>